<svg xmlns="http://www.w3.org/2000/svg" viewBox="0 0 64 64" fill="none">
  <defs>
    <linearGradient id="g" x1="8" y1="10" x2="56" y2="54" gradientUnits="userSpaceOnUse">
      <stop offset="0" stop-color="#a78bfa"/>
      <stop offset="1" stop-color="#7c3aed"/>
    </linearGradient>
  </defs>
  <!-- stylized split brain, matching the AICortex banner mark -->
  <g stroke="url(#g)" stroke-width="4" stroke-linecap="round" stroke-linejoin="round">
    <path d="M29 10c-7 0-11 4-12 8-5 1-8 5-8 10 0 4 2 7 4 8-1 2-1 4 0 6 2 4 6 6 10 6h6V10z"/>
    <path d="M35 10c7 0 11 4 12 8 5 1 8 5 8 10 0 4-2 7-4 8 1 2 1 4 0 6-2 4-6 6-10 6h-6V10z"/>
    <path d="M22 22c3 0 5 2 5 5M42 22c-3 0-5 2-5 5" stroke-width="3"/>
    <path d="M20 34c3 0 5 2 5 4M44 34c-3 0-5 2-5 4" stroke-width="3"/>
  </g>
</svg>
