<svg width="100%" viewBox="0 0 1200 300" xmlns="http://www.w3.org/2000/svg" role="img" aria-label="AICortex — your self-hosted LLM brain on your own NAS">
<defs>
<linearGradient id="bg" x1="0" y1="0" x2="1" y2="1">
<stop offset="0" stop-color="#0B1020"/>
<stop offset="1" stop-color="#141C38"/>
</linearGradient>
<linearGradient id="acc" x1="0" y1="0" x2="1" y2="1">
<stop offset="0" stop-color="#2DD4BF"/>
<stop offset="1" stop-color="#818CF8"/>
</linearGradient>
<pattern id="dots" width="26" height="26" patternUnits="userSpaceOnUse">
<circle cx="2" cy="2" r="1.4" fill="#9FB0E6" opacity="0.07"/>
</pattern>
</defs>
<rect x="0" y="0" width="1200" height="300" rx="18" fill="url(#bg)"/>
<rect x="0" y="0" width="1200" height="300" rx="18" fill="url(#dots)"/>
<g stroke="url(#acc)" stroke-width="2" opacity="0.55">
<line x1="130" y1="150" x2="70" y2="96"/>
<line x1="130" y1="150" x2="196" y2="104"/>
<line x1="130" y1="150" x2="202" y2="198"/>
<line x1="130" y1="150" x2="66" y2="206"/>
<line x1="130" y1="150" x2="130" y2="66"/>
<line x1="130" y1="150" x2="130" y2="236"/>
</g>
<circle cx="130" cy="150" r="82" fill="none" stroke="#2A3358" stroke-width="1.2" opacity="0.8"/>
<circle cx="70" cy="96" r="9" fill="#5EEAD4"/>
<circle cx="196" cy="104" r="8" fill="#818CF8"/>
<circle cx="202" cy="198" r="9" fill="#818CF8"/>
<circle cx="66" cy="206" r="8" fill="#5EEAD4"/>
<circle cx="130" cy="66" r="6" fill="#A5B4FC"/>
<circle cx="130" cy="236" r="6" fill="#A5B4FC"/>
<circle cx="130" cy="150" r="22" fill="url(#acc)"/>
<circle cx="130" cy="150" r="22" fill="none" stroke="#0B1020" stroke-width="3"/>
<text x="250" y="96" font-family="'Helvetica Neue',Helvetica,Arial,sans-serif" font-size="18" font-weight="600" letter-spacing="4" fill="#5EEAD4">SELF-HOSTED · MCP CONNECTOR</text>
<text x="247" y="172" font-family="'Helvetica Neue',Helvetica,Arial,sans-serif" font-size="88" font-weight="800" letter-spacing="-1" fill="#F4F7FF">AICortex</text>
<text x="250" y="214" font-family="'Helvetica Neue',Helvetica,Arial,sans-serif" font-size="22" font-weight="400" fill="#AEB7D6">Your LLM's persistent brain — memory, skills, tools &amp; devices, on your own NAS.</text>
<text x="251" y="252" font-family="'Helvetica Neue',Helvetica,Arial,sans-serif" font-size="17" font-weight="600" letter-spacing="1" fill="#7C88B8">memory · skills · tools · devices · sessions · secrets · scheduling</text>
</svg>
